<svg fill="none" viewBox="0 0 572 121"><path fill="#89B4FA" d="M109.333 19.667a8 8 0 010 16H88a8 8 0 110-16h21.333z"/><path fill="#89B4FA" d="M90.667 38.333V17a8 8 0 0116 0v21.333a8 8 0 01-16 0z"/><path fill="#89B4FA" d="M52.963 9.087c4.789-.26 8.375 2.624 9.964 5.95a11.001 11.001 0 01-.602 10.56A24 24 0 0095.398 58.67l.317-.191a11.013 11.013 0 0110.239-.417c3.335 1.59 6.213 5.18 5.955 9.961h.001a56.009 56.009 0 01-35.89 49.278 55.995 55.995 0 01-59.625-12.695 56.002 56.002 0 016.622-84.863A56 56 0 0152.963 9.087zm-8.567 17.635a40 40 0 00-25.762 23.98 40 40 0 0069.689 37.851 39.995 39.995 0 005.948-11.955 39.997 39.997 0 01-16.12 1.463 40 40 0 01-33.755-51.339z"/><path fill="#CDD6F4" d="M508.579 116V36.296h25.092V116h-25.092zm25.092-43.788l-10.496-8.2c2.077-9.293 5.576-16.51 10.496-21.648 4.92-5.139 11.753-7.708 20.5-7.708 3.826 0 7.161.601 10.004 1.804 2.952 1.093 5.521 2.843 7.708 5.248l-14.924 18.86c-1.094-1.203-2.46-2.132-4.1-2.788-1.64-.656-3.499-.984-5.576-.984-4.155 0-7.49 1.312-10.004 3.936-2.406 2.515-3.608 6.341-3.608 11.48zm-89.335 45.428c-7.326 0-13.886-1.804-19.68-5.412-5.686-3.608-10.223-8.528-13.612-14.76-3.28-6.232-4.92-13.339-4.92-21.32s1.64-15.088 4.92-21.32c3.389-6.232 7.926-11.152 13.612-14.76 5.794-3.608 12.354-5.412 19.68-5.412 5.357 0 10.168 1.039 14.432 3.116 4.373 2.077 7.926 4.975 10.66 8.692 2.733 3.608 4.264 7.763 4.592 12.464v34.44c-.328 4.701-1.859 8.911-4.592 12.628-2.624 3.608-6.123 6.451-10.496 8.528-4.374 2.077-9.239 3.116-14.596 3.116zm5.084-22.632c5.357 0 9.676-1.75 12.956-5.248 3.28-3.608 4.92-8.145 4.92-13.612 0-3.717-.766-6.997-2.296-9.84-1.422-2.843-3.499-5.03-6.232-6.56-2.624-1.64-5.686-2.46-9.184-2.46-3.499 0-6.615.82-9.348 2.46-2.624 1.53-4.756 3.717-6.396 6.56-1.531 2.843-2.296 6.123-2.296 9.84 0 3.608.765 6.833 2.296 9.676 1.53 2.843 3.662 5.084 6.396 6.724 2.733 1.64 5.794 2.46 9.184 2.46zM466.312 116V94.516l3.772-19.352-3.772-19.352V36.296h24.6V116h-24.6zm-96.476 0V70.572c0-4.155-1.312-7.49-3.936-10.004-2.515-2.624-5.74-3.936-9.676-3.936-2.733 0-5.139.601-7.216 1.804-2.077 1.093-3.717 2.733-4.92 4.92-1.203 2.077-1.804 4.483-1.804 7.216l-9.676-4.756c0-6.232 1.367-11.699 4.1-16.4 2.733-4.701 6.505-8.31 11.316-10.824 4.92-2.624 10.441-3.936 16.564-3.936 5.904 0 11.097 1.421 15.58 4.264 4.592 2.733 8.2 6.396 10.824 10.988 2.624 4.592 3.936 9.621 3.936 15.088V116h-25.092zm-52.644 0V36.296h25.092V116h-25.092zm-52.982 1.804c-7.326 0-13.831-1.476-19.516-4.428-5.576-3.061-9.95-7.216-13.12-12.464-3.171-5.357-4.756-11.48-4.756-18.368V36.296h25.092v45.92c0 2.733.437 5.084 1.312 7.052.984 1.968 2.405 3.499 4.264 4.592 1.858 1.093 4.1 1.64 6.724 1.64 3.717 0 6.669-1.148 8.856-3.444 2.186-2.405 3.28-5.685 3.28-9.84v-45.92h25.092V82.38c0 6.997-1.586 13.175-4.756 18.532-3.171 5.248-7.544 9.403-13.12 12.464-5.576 2.952-12.027 4.428-19.352 4.428zM139.152 116V.216H164.9V116h-25.748zm19.844 0V93.368h57.236V116h-57.236z"/></svg>